<?xml version="1.0" encoding="UTF-8"?>
<svg height="128px" viewBox="0 0 128 128" width="128px" xmlns="http://www.w3.org/2000/svg">
    <g stroke="#000000">
        <path d="m 64 60.535156 c 4.398438 0 7.964844 3.566406 7.964844 7.964844 v 39 c 0 4.398438 -3.566406 7.964844 -7.964844 7.964844 s -7.964844 -3.566406 -7.964844 -7.964844 v -39 c 0 -4.398438 3.566406 -7.964844 7.964844 -7.964844 z m 0 0" fill="#865e3c" stroke-width="1.06752"/>
        <path d="m 56 11.5 c -8.863281 0 -16 7.136719 -16 16 v 24 c 0 8.863281 7.136719 16 16 16 h 16 c 8.863281 0 16 -7.136719 16 -16 v -24 c 0 -8.863281 -7.136719 -16 -16 -16 z m -4 8 c 2.214844 0 4 1.785156 4 4 v 32 c 0 2.214844 -1.785156 4 -4 4 s -4 -1.785156 -4 -4 v -32 c 0 -2.214844 1.785156 -4 4 -4 z m 11.753906 0 h 0.492188 c 2.078125 0 3.753906 1.675781 3.753906 3.753906 v 32.492188 c 0 2.078125 -1.675781 3.753906 -3.753906 3.753906 h -0.492188 c -2.078125 0 -3.753906 -1.675781 -3.753906 -3.753906 v -32.492188 c 0 -2.078125 1.675781 -3.753906 3.753906 -3.753906 z m 12 0 h 0.492188 c 2.078125 0 3.753906 1.675781 3.753906 3.753906 v 32.492188 c 0 2.078125 -1.675781 3.753906 -3.753906 3.753906 h -0.492188 c -2.078125 0 -3.753906 -1.675781 -3.753906 -3.753906 v -32.492188 c 0 -2.078125 1.675781 -3.753906 3.753906 -3.753906 z m 0 0" fill="#b5835a"/>
    </g>
</svg>
